<svg id="Layer_1" data-name="Layer 1" xmlns="http://www.w3.org/2000/svg" width="20" height="20" viewBox="0 0 20 20"><title>icon-twitter</title><path id="path16" d="M18.52,2.76a7.28,7.28,0,0,1-2.35.92,3.65,3.65,0,0,0-2.7-1.2,3.75,3.75,0,0,0-3.7,3.79,3.82,3.82,0,0,0,.1.86,10.42,10.42,0,0,1-7.63-4,3.86,3.86,0,0,0-.5,1.91A3.82,3.82,0,0,0,3.38,8.25a3.64,3.64,0,0,1-1.68-.47v0a3.77,3.77,0,0,0,3,3.72,3.53,3.53,0,0,1-1,.13A3.47,3.47,0,0,1,3,11.6a3.71,3.71,0,0,0,3.46,2.63,7.31,7.31,0,0,1-4.6,1.63A7.54,7.54,0,0,1,1,15.81a10.31,10.31,0,0,0,5.67,1.7c6.81,0,10.53-5.78,10.53-10.79,0-.17,0-.33,0-.49a7.58,7.58,0,0,0,1.84-2,7.24,7.24,0,0,1-2.12.6,3.79,3.79,0,0,0,1.63-2.1"/></svg>